<svg width="204.11005859374998px" height="122.021240234375px" xmlns="http://www.w3.org/2000/svg" viewBox="147.94497070312502 13.9893798828125 204.11005859374998 122.021240234375" style="background: rgba(255, 0, 0, 0);" preserveAspectRatio="xMidYMid"><defs><filter id="editing-extrude-glow"><feFlood flood-color="#1e0f0f" result="flood-1"></feFlood><feMorphology operator="erode" radius="1" in="SourceAlpha" result="erode"></feMorphology><feComposite operator="in" in="flood-1" in2="erode" result="comp1"></feComposite><feConvolveMatrix order="3,3" divisor="1" in="comp1" result="convolve" kernelMatrix="0 0 0 1 1 1 0 0 0"></feConvolveMatrix><feOffset dx="-3" dy="0" in="convolve" result="extrude"></feOffset><feComposite operator="in" in="flood-1" in2="extrude" result="comp-extrude"></feComposite><feFlood flood-color="#000000" result="flood-2"></feFlood><feComposite operator="in" in="flood-2" in2="SourceAlpha" result="comp2"></feComposite><feMorphology operator="dilate" radius="1" in="comp2" result="dilate"></feMorphology><feOffset dx="-4.5" dy="0" in="dilate" result="offset"></feOffset><feGaussianBlur in="offset" stdDeviation="5.8" result="blur"></feGaussianBlur><feComponentTransfer in="blur" result="shadow"><feFuncA type="linear" slope="0.8" intercept="-0.2"></feFuncA></feComponentTransfer><feMerge><feMergeNode in="shadow"></feMergeNode><feMergeNode in="comp-extrude"></feMergeNode><feMergeNode in="SourceGraphic"></feMergeNode></feMerge></filter></defs><g filter="url(#editing-extrude-glow)"><g transform="translate(182.4500012397766, 98.67218780517578)"><path d="M26.05-37.12L26.05-37.12L26.05-37.12Q26.94-38.66 26.94-40.32L26.94-40.32L26.94-40.32Q26.94-43.26 25.15-43.26L25.15-43.26L25.15-43.26Q22.40-43.26 21.25-37.63L21.25-37.63L20.29-32.64L26.11-32.64L25.73-29.76L19.71-29.76L13.95 0L1.02 1.28L7.17-29.76L2.62-29.76L3.20-32.64L7.68-32.64L9.02-37.70L9.02-37.70Q10.18-42.37 15.10-44.54L15.10-44.54L15.10-44.54Q18.69-46.08 24.70-46.08L24.70-46.08L24.70-46.08Q30.72-46.08 33.41-44.54L33.41-44.54L33.41-44.54Q36.10-43.01 36.10-40.96L36.10-40.96L36.10-40.96Q36.10-38.91 34.50-37.63L34.50-37.63L34.50-37.63Q32.90-36.35 31.10-36.35L31.10-36.35L31.10-36.35Q27.58-36.35 26.05-37.12ZM27.81-1.92L27.81-1.92L27.81-1.92Q26.30-3.58 25.63-6.21L25.63-6.21L25.63-6.21Q24.96-8.83 24.96-13.12L24.96-13.12L24.96-13.12Q24.96-17.41 26.43-21.31L26.43-21.31L26.43-21.31Q27.90-25.22 30.59-28.03L30.59-28.03L30.59-28.03Q36.10-33.92 45.18-33.92L45.18-33.92L45.18-33.92Q48.45-33.92 50.82-32.83L50.82-32.83L61.76-33.92L57.02-8.96L57.02-8.96Q56.83-8.19 56.83-6.78L56.83-6.78L56.83-6.78Q56.83-5.38 57.70-4.48L57.70-4.48L57.70-4.48Q58.56-3.58 59.84-3.46L59.84-3.46L59.84-3.46Q59.20-1.28 56.86 0L56.86 0L56.86 0Q54.53 1.28 51.90 1.28L51.90 1.28L51.90 1.28Q49.28 1.28 47.52 0.29L47.52 0.29L47.52 0.29Q45.76-0.70 45.25-2.37L45.25-2.37L45.25-2.37Q44.22-0.77 42.05 0.26L42.05 0.26L42.05 0.26Q39.87 1.28 36.96 1.28L36.96 1.28L36.96 1.28Q34.05 1.28 31.68 0.51L31.68 0.51L31.68 0.51Q29.31-0.26 27.81-1.92ZM41.31-27.90L41.31-27.90L41.31-27.90Q40.58-26.75 39.94-24.80L39.94-24.80L39.94-24.80Q39.30-22.85 38.24-17.63L38.24-17.63L38.24-17.63Q37.18-12.42 37.18-8.70L37.18-8.70L37.18-8.70Q37.18-4.99 37.76-3.90L37.76-3.90L37.76-3.90Q38.34-2.82 39.36-2.82L39.36-2.82L39.36-2.82Q41.41-2.82 42.91-4.77L42.91-4.77L42.91-4.77Q44.42-6.72 44.99-10.18L44.99-10.18L48.38-28.93L48.38-28.93Q47.04-30.08 45.47-30.08L45.47-30.08L45.47-30.08Q43.90-30.08 42.98-29.57L42.98-29.57L42.98-29.57Q42.05-29.06 41.31-27.90ZM92.29 1.28L92.29 1.28L92.29 1.28Q84.54 1.28 84.54-4.74L84.54-4.74L84.54-4.74Q84.61-6.40 85.12-9.22L85.12-9.22L86.27-15.10L86.27-15.10Q88-23.42 88-25.28L88-25.28L88-25.28Q88-28.99 85.82-28.99L85.82-28.99L85.82-28.99Q82.18-28.99 80.26-19.46L80.26-19.46L76.48 0L63.62 1.28L70.27-32.70L80.77-33.92L79.74-27.65L79.74-27.65Q82.75-33.92 91.97-33.92L91.97-33.92L91.97-33.92Q96.45-33.92 98.34-32.03L98.34-32.03L98.34-32.03Q100.22-30.14 100.22-25.92L100.22-25.92L100.22-25.92Q100.22-21.95 98.18-12.67L98.18-12.67L98.18-12.67Q97.22-8.51 97.22-6.94L97.22-6.94L97.22-6.94Q97.22-5.38 98.08-4.48L98.08-4.48L98.08-4.48Q98.94-3.58 100.22-3.46L100.22-3.46L100.22-3.46Q99.58-1.28 97.38 0L97.38 0L97.38 0Q95.17 1.28 92.29 1.28ZM124.48-22.46L124.48-22.46L124.48-22.46Q125.38-24.83 125.38-26.88L125.38-26.88L125.38-26.88Q125.38-30.66 122.30-30.66L122.30-30.66L122.30-30.66Q120.70-30.66 119.39-29.22L119.39-29.22L119.39-29.22Q118.08-27.78 118.08-25.98L118.08-25.98L118.08-25.98Q118.08-24.70 119.10-23.68L119.10-23.68L119.10-23.68Q120.58-22.27 124.35-19.97L124.35-19.97L124.35-19.97Q128.13-17.66 129.57-15.78L129.57-15.78L129.57-15.78Q131.01-13.89 131.01-11.30L131.01-11.30L131.01-11.30Q131.01-8.70 129.76-6.34L129.76-6.34L129.76-6.34Q128.51-3.97 126.27-2.30L126.27-2.30L126.27-2.30Q121.47 1.28 113.79 1.28L113.79 1.28L113.79 1.28Q109.63 1.28 106.43-0.90L106.43-0.90L106.43-0.90Q103.23-3.01 103.23-5.50L103.23-5.50L103.23-5.50Q103.23-8 105.06-9.47L105.06-9.47L105.06-9.47Q106.88-10.94 109.57-10.94L109.57-10.94L109.57-10.94Q112.26-10.94 113.92-9.92L113.92-9.92L113.92-9.92Q113.09-7.81 113.09-6.40L113.09-6.40L113.09-6.40Q113.09-2.18 116.67-2.18L116.67-2.18L116.67-2.18Q118.21-2.18 119.23-3.14L119.23-3.14L119.23-3.14Q120.26-4.10 120.26-5.76L120.26-5.76L120.26-5.76Q120.26-9.02 114.75-12.48L114.75-12.48L114.75-12.48Q110.27-15.42 109.25-16.58L109.25-16.58L109.25-16.58Q107.52-18.62 107.52-21.18L107.52-21.18L107.52-21.18Q107.52-23.74 108.74-26.18L108.74-26.18L108.74-26.18Q109.95-28.61 112.19-30.34L112.19-30.34L112.19-30.34Q116.86-33.92 124.99-33.92L124.99-33.92L124.99-33.92Q129.15-33.92 131.62-32.26L131.62-32.26L131.62-32.26Q134.08-30.59 134.08-27.78L134.08-27.78L134.08-27.78Q134.08-24.96 132.38-23.36L132.38-23.36L132.38-23.36Q130.69-21.76 127.62-21.76L127.62-21.76L127.62-21.76Q125.50-21.76 124.48-22.46Z" fill="#ff0000"></path></g></g><style>text {
  font-size: 64px;
  font-family: Arial Black;
  dominant-baseline: central;
  text-anchor: middle;
}</style></svg>