<svg width="459.896240234375px" height="122.021240234375px" xmlns="http://www.w3.org/2000/svg" viewBox="20.0518798828125 13.9893798828125 459.896240234375 122.021240234375" style="background: rgba(255, 0, 0, 0);" preserveAspectRatio="xMidYMid"><defs><filter id="editing-extrude-glow"><feFlood flood-color="#1e0f0f" result="flood-1"></feFlood><feMorphology operator="erode" radius="1" in="SourceAlpha" result="erode"></feMorphology><feComposite operator="in" in="flood-1" in2="erode" result="comp1"></feComposite><feConvolveMatrix order="3,3" divisor="1" in="comp1" result="convolve" kernelMatrix="0 0 0 1 1 1 0 0 0"></feConvolveMatrix><feOffset dx="-3" dy="0" in="convolve" result="extrude"></feOffset><feComposite operator="in" in="flood-1" in2="extrude" result="comp-extrude"></feComposite><feFlood flood-color="#000000" result="flood-2"></feFlood><feComposite operator="in" in="flood-2" in2="SourceAlpha" result="comp2"></feComposite><feMorphology operator="dilate" radius="1" in="comp2" result="dilate"></feMorphology><feOffset dx="-4.5" dy="0" in="dilate" result="offset"></feOffset><feGaussianBlur in="offset" stdDeviation="5.8" result="blur"></feGaussianBlur><feComponentTransfer in="blur" result="shadow"><feFuncA type="linear" slope="0.8" intercept="-0.2"></feFuncA></feComponentTransfer><feMerge><feMergeNode in="shadow"></feMergeNode><feMergeNode in="comp-extrude"></feMergeNode><feMergeNode in="SourceGraphic"></feMergeNode></feMerge></filter></defs><g filter="url(#editing-extrude-glow)"><g transform="translate(88.9421899318695, 98.9921875)"><path d="M47.17 1.28L47.17 1.28L47.17 1.28Q39.42 1.28 39.42-4.74L39.42-4.74L39.42-4.74Q39.42-7.36 40.54-12.45L40.54-12.45L40.54-12.45Q41.66-17.54 42.05-19.58L42.05-19.58L42.05-19.58Q42.94-24.26 42.94-25.73L42.94-25.73L42.94-25.73Q42.94-28.99 40.51-28.99L40.51-28.99L40.51-28.99Q38.91-28.99 37.38-26.78L37.38-26.78L37.38-26.78Q35.84-24.58 35.14-20.16L35.14-20.16L31.17 0L18.69 1.28L22.14-16.13L22.14-16.13Q22.72-19.01 23.23-22.27L23.23-22.27L23.23-22.27Q23.74-25.54 23.74-26.05L23.74-26.05L23.74-26.05Q23.74-28.99 21.57-28.99L21.57-28.99L21.57-28.99Q20.10-28.99 18.50-26.82L18.50-26.82L18.50-26.82Q16.90-24.64 16-20.16L16-20.16L12.10 0L-0.51 1.28L6.21-32.64L16.64-33.92L15.55-27.46L15.55-27.46Q17.22-30.91 20.29-32.42L20.29-32.42L20.29-32.42Q23.36-33.92 28.16-33.92L28.16-33.92L28.16-33.92Q30.91-33.92 32.70-32.58L32.70-32.58L32.70-32.58Q34.50-31.23 35.07-29.06L35.07-29.06L35.07-29.06Q36.16-31.30 38.94-32.61L38.94-32.61L38.94-32.61Q41.73-33.92 45.15-33.92L45.15-33.92L45.15-33.92Q48.58-33.92 50.27-33.18L50.27-33.18L50.27-33.18Q51.97-32.45 52.99-31.23L52.99-31.23L52.99-31.23Q54.72-28.99 54.72-24.90L54.72-24.90L54.72-24.90Q54.72-20.86 52.99-12.48L52.99-12.48L52.99-12.48Q52.10-8.38 52.10-6.88L52.10-6.88L52.10-6.88Q52.10-5.38 52.96-4.48L52.96-4.48L52.96-4.48Q53.82-3.58 55.10-3.46L55.10-3.46L55.10-3.46Q54.46-1.28 52.26 0L52.26 0L52.26 0Q50.05 1.28 47.17 1.28ZM73.98 1.28L73.98 1.28L73.98 1.28Q59.90 1.28 59.90-11.97L59.90-11.97L59.90-11.97Q59.90-21.38 65.09-27.46L65.09-27.46L65.09-27.46Q70.59-33.92 80.13-33.92L80.13-33.92L80.13-33.92Q87.04-33.92 90.56-30.72L90.56-30.72L90.56-30.72Q94.08-27.52 94.08-20.80L94.08-20.80L94.08-20.80Q94.08-10.56 88.58-4.61L88.58-4.61L88.58-4.61Q83.20 1.28 73.98 1.28ZM75.65-26.56L75.65-26.56L75.65-26.56Q74.88-24.83 74.27-22.24L74.27-22.24L74.27-22.24Q73.66-19.65 72.90-15.55L72.90-15.55L72.90-15.55Q72.13-11.46 72.13-6.40L72.13-6.40L72.13-6.40Q72.13-4.74 72.67-3.65L72.67-3.65L72.67-3.65Q73.22-2.56 74.69-2.56L74.69-2.56L74.69-2.56Q76.16-2.56 77.09-3.26L77.09-3.26L77.09-3.26Q78.02-3.97 78.72-5.63L78.72-5.63L78.72-5.63Q80-8.58 81.02-14.05L81.02-14.05L81.02-14.05Q82.05-19.52 82.14-21.89L82.14-21.89L82.14-21.89Q82.24-24.26 82.24-26.02L82.24-26.02L82.24-26.02Q82.24-27.78 81.73-28.93L81.73-28.93L81.73-28.93Q81.22-30.08 79.78-30.08L79.78-30.08L79.78-30.08Q78.34-30.08 77.38-29.18L77.38-29.18L77.38-29.18Q76.42-28.29 75.65-26.56ZM121.09-31.55L121.09-31.55L121.09-31.55Q123.20-33.92 126.85-33.92L126.85-33.92L126.85-33.92Q129.09-33.92 130.82-32.70L130.82-32.70L130.82-32.70Q132.54-31.49 132.54-29.22L132.54-29.22L132.54-29.22Q132.54-26.94 131.84-24.51L131.84-24.51L131.84-24.51Q131.14-22.08 130.05-19.58L130.05-19.58L130.05-19.58Q127.87-14.72 124.86-10.69L124.86-10.69L124.86-10.69Q120.64-4.86 116.58-1.79L116.58-1.79L116.58-1.79Q112.51 1.28 108.10 1.28L108.10 1.28L108.10 1.28Q104.51 1.28 102.34 0.45L102.34 0.45L102.34 0.45Q101.95-12.99 101.47-17.79L101.47-17.79L101.47-17.79Q100.99-22.59 100.61-25.22L100.61-25.22L100.61-25.22Q99.97-30.34 98.05-31.55L98.05-31.55L98.05-31.55Q99.52-32.83 100.96-33.38L100.96-33.38L100.96-33.38Q102.40-33.92 105.38-33.92L105.38-33.92L105.38-33.92Q108.35-33.92 110.46-31.58L110.46-31.58L110.46-31.58Q112.58-29.25 112.99-25.12L112.99-25.12L112.99-25.12Q113.41-20.99 113.41-16L113.41-16L113.41-16Q113.41-11.01 113.02-4.99L113.02-4.99L113.02-4.99Q115.01-6.40 117.12-10.69L117.12-10.69L117.12-10.69Q120-16.64 121.02-23.81L121.02-23.81L121.02-23.81Q121.34-25.98 121.34-28.29L121.34-28.29L121.34-28.29Q121.34-30.59 121.09-31.55ZM149.63-3.52L149.63-3.52L149.63-3.52Q147.65 1.28 141.31 1.28L141.31 1.28L141.31 1.28Q138.05 1.28 136-0.96L136-0.96L136-0.96Q134.27-2.94 134.27-4.93L134.27-4.93L134.27-4.93Q134.27-10.11 136.64-20.22L136.64-20.22L139.01-32.64L152-33.92L148.10-13.70L148.10-13.70Q147.01-8.96 147.01-7.30L147.01-7.30L147.01-7.30Q147.01-3.65 149.63-3.52ZM140.16-41.54L140.16-41.54L140.16-41.54Q140.16-44.03 142.24-45.38L142.24-45.38L142.24-45.38Q144.32-46.72 147.33-46.72L147.33-46.72L147.33-46.72Q150.34-46.72 152.16-45.38L152.16-45.38L152.16-45.38Q153.98-44.03 153.98-41.54L153.98-41.54L153.98-41.54Q153.98-39.04 151.97-37.76L151.97-37.76L151.97-37.76Q149.95-36.48 146.94-36.48L146.94-36.48L146.94-36.48Q143.94-36.48 142.05-37.76L142.05-37.76L142.05-37.76Q140.16-39.04 140.16-41.54ZM180.99-10.82L180.99-10.82L180.99-10.82Q182.59-9.73 182.59-7.33L182.59-7.33L182.59-7.33Q182.59-4.93 181.38-3.39L181.38-3.39L181.38-3.39Q180.16-1.86 178.18-0.83L178.18-0.83L178.18-0.83Q174.08 1.28 169.66 1.28L169.66 1.28L169.66 1.28Q165.25 1.28 162.66 0.32L162.66 0.32L162.66 0.32Q160.06-0.64 158.34-2.43L158.34-2.43L158.34-2.43Q154.94-5.82 154.94-12.03L154.94-12.03L154.94-12.03Q154.94-21.70 160.19-27.58L160.19-27.58L160.19-27.58Q165.82-33.92 175.62-33.92L175.62-33.92L175.62-33.92Q181.70-33.92 184.70-31.36L184.70-31.36L184.70-31.36Q186.94-29.44 186.94-26.30L186.94-26.30L186.94-26.30Q186.94-15.04 167.49-15.04L167.49-15.04L167.49-15.04Q167.23-13.38 167.23-11.97L167.23-11.97L167.23-11.97Q167.23-9.02 168.54-7.90L168.54-7.90L168.54-7.90Q169.86-6.78 172.29-6.78L172.29-6.78L172.29-6.78Q174.72-6.78 177.31-7.90L177.31-7.90L177.31-7.90Q179.90-9.02 180.99-10.82ZM167.94-17.79L167.94-17.79L167.94-17.79Q172.48-17.79 175.10-20.61L175.10-20.61L175.10-20.61Q177.73-23.30 177.73-27.58L177.73-27.58L177.73-27.58Q177.73-29.06 177.18-29.86L177.18-29.86L177.18-29.86Q176.64-30.66 175.55-30.66L175.55-30.66L175.55-30.66Q174.46-30.66 173.54-30.24L173.54-30.24L173.54-30.24Q172.61-29.82 171.65-28.42L171.65-28.42L171.65-28.42Q169.28-25.22 167.94-17.79ZM214.08-37.12L214.08-37.12L214.08-37.12Q214.98-38.66 214.98-40.32L214.98-40.32L214.98-40.32Q214.98-43.26 213.18-43.26L213.18-43.26L213.18-43.26Q210.43-43.26 209.28-37.63L209.28-37.63L208.32-32.64L214.14-32.64L213.76-29.76L207.74-29.76L201.98 0L189.06 1.28L195.20-29.76L190.66-29.76L191.23-32.64L195.71-32.64L197.06-37.70L197.06-37.70Q198.21-42.37 203.14-44.54L203.14-44.54L203.14-44.54Q206.72-46.08 212.74-46.08L212.74-46.08L212.74-46.08Q218.75-46.08 221.44-44.54L221.44-44.54L221.44-44.54Q224.13-43.01 224.13-40.96L224.13-40.96L224.13-40.96Q224.13-38.91 222.53-37.63L222.53-37.63L222.53-37.63Q220.93-36.35 219.14-36.35L219.14-36.35L219.14-36.35Q215.62-36.35 214.08-37.12ZM215.84-1.92L215.84-1.92L215.84-1.92Q214.34-3.58 213.66-6.21L213.66-6.21L213.66-6.21Q212.99-8.83 212.99-13.12L212.99-13.12L212.99-13.12Q212.99-17.41 214.46-21.31L214.46-21.31L214.46-21.31Q215.94-25.22 218.62-28.03L218.62-28.03L218.62-28.03Q224.13-33.92 233.22-33.92L233.22-33.92L233.22-33.92Q236.48-33.92 238.85-32.83L238.85-32.83L249.79-33.92L245.06-8.96L245.06-8.96Q244.86-8.19 244.86-6.78L244.86-6.78L244.86-6.78Q244.86-5.38 245.73-4.48L245.73-4.48L245.73-4.48Q246.59-3.58 247.87-3.46L247.87-3.46L247.87-3.46Q247.23-1.28 244.90 0L244.90 0L244.90 0Q242.56 1.28 239.94 1.28L239.94 1.28L239.94 1.28Q237.31 1.28 235.55 0.29L235.55 0.29L235.55 0.29Q233.79-0.70 233.28-2.37L233.28-2.37L233.28-2.37Q232.26-0.77 230.08 0.26L230.08 0.26L230.08 0.26Q227.90 1.28 224.99 1.28L224.99 1.28L224.99 1.28Q222.08 1.28 219.71 0.51L219.71 0.51L219.71 0.51Q217.34-0.26 215.84-1.92ZM229.34-27.90L229.34-27.90L229.34-27.90Q228.61-26.75 227.97-24.80L227.97-24.80L227.97-24.80Q227.33-22.85 226.27-17.63L226.27-17.63L226.27-17.63Q225.22-12.42 225.22-8.70L225.22-8.70L225.22-8.70Q225.22-4.99 225.79-3.90L225.79-3.90L225.79-3.90Q226.37-2.82 227.39-2.82L227.39-2.82L227.39-2.82Q229.44-2.82 230.94-4.77L230.94-4.77L230.94-4.77Q232.45-6.72 233.02-10.18L233.02-10.18L236.42-28.93L236.42-28.93Q235.07-30.08 233.50-30.08L233.50-30.08L233.50-30.08Q231.94-30.08 231.01-29.57L231.01-29.57L231.01-29.57Q230.08-29.06 229.34-27.90ZM280.32 1.28L280.32 1.28L280.32 1.28Q272.58 1.28 272.58-4.74L272.58-4.74L272.58-4.74Q272.64-6.40 273.15-9.22L273.15-9.22L274.30-15.10L274.30-15.10Q276.03-23.42 276.03-25.28L276.03-25.28L276.03-25.28Q276.03-28.99 273.86-28.99L273.86-28.99L273.86-28.99Q270.21-28.99 268.29-19.46L268.29-19.46L264.51 0L251.65 1.28L258.30-32.70L268.80-33.92L267.78-27.65L267.78-27.65Q270.78-33.92 280-33.92L280-33.92L280-33.92Q284.48-33.92 286.37-32.03L286.37-32.03L286.37-32.03Q288.26-30.14 288.26-25.92L288.26-25.92L288.26-25.92Q288.26-21.95 286.21-12.67L286.21-12.67L286.21-12.67Q285.25-8.51 285.25-6.94L285.25-6.94L285.25-6.94Q285.25-5.38 286.11-4.48L286.11-4.48L286.11-4.48Q286.98-3.58 288.26-3.46L288.26-3.46L288.26-3.46Q287.62-1.28 285.41 0L285.41 0L285.41 0Q283.20 1.28 280.32 1.28ZM312.51-22.46L312.51-22.46L312.51-22.46Q313.41-24.83 313.41-26.88L313.41-26.88L313.41-26.88Q313.41-30.66 310.34-30.66L310.34-30.66L310.34-30.66Q308.74-30.66 307.42-29.22L307.42-29.22L307.42-29.22Q306.11-27.78 306.11-25.98L306.11-25.98L306.11-25.98Q306.11-24.70 307.14-23.68L307.14-23.68L307.14-23.68Q308.61-22.27 312.38-19.97L312.38-19.97L312.38-19.97Q316.16-17.66 317.60-15.78L317.60-15.78L317.60-15.78Q319.04-13.89 319.04-11.30L319.04-11.30L319.04-11.30Q319.04-8.70 317.79-6.34L317.79-6.34L317.79-6.34Q316.54-3.97 314.30-2.30L314.30-2.30L314.30-2.30Q309.50 1.28 301.82 1.28L301.82 1.28L301.82 1.28Q297.66 1.28 294.46-0.90L294.46-0.90L294.46-0.90Q291.26-3.01 291.26-5.50L291.26-5.50L291.26-5.50Q291.26-8 293.09-9.47L293.09-9.47L293.09-9.47Q294.91-10.94 297.60-10.94L297.60-10.94L297.60-10.94Q300.29-10.94 301.95-9.92L301.95-9.92L301.95-9.92Q301.12-7.81 301.12-6.40L301.12-6.40L301.12-6.40Q301.12-2.18 304.70-2.18L304.70-2.18L304.70-2.18Q306.24-2.18 307.26-3.14L307.26-3.14L307.26-3.14Q308.29-4.10 308.29-5.76L308.29-5.76L308.29-5.76Q308.29-9.02 302.78-12.48L302.78-12.48L302.78-12.48Q298.30-15.42 297.28-16.58L297.28-16.58L297.28-16.58Q295.55-18.62 295.55-21.18L295.55-21.18L295.55-21.18Q295.55-23.74 296.77-26.18L296.77-26.18L296.77-26.18Q297.98-28.61 300.22-30.34L300.22-30.34L300.22-30.34Q304.90-33.92 313.02-33.92L313.02-33.92L313.02-33.92Q317.18-33.92 319.65-32.26L319.65-32.26L319.65-32.26Q322.11-30.59 322.11-27.78L322.11-27.78L322.11-27.78Q322.11-24.96 320.42-23.36L320.42-23.36L320.42-23.36Q318.72-21.76 315.65-21.76L315.65-21.76L315.65-21.76Q313.54-21.76 312.51-22.46Z" fill="#ff0000"></path></g></g><style>text {
  font-size: 64px;
  font-family: Arial Black;
  dominant-baseline: central;
  text-anchor: middle;
}</style></svg>