<svg width="237.6212158203125px" height="178.439990234375px" xmlns="http://www.w3.org/2000/svg" viewBox="131.18939208984375 -14.219995117187494 237.6212158203125 178.439990234375" style="background: rgba(0, 0, 0, 0);" preserveAspectRatio="xMidYMid"><defs><filter id="editing-offset"><feFlood flood-color="#000000" flood-opacity="0.5" result="c1"></feFlood><feFlood flood-color="rgba(62.38095238095238%,62.38095238095238%,62.38095238095238%,0.599)" flood-opacity="0.5" result="c2"></feFlood><feFlood flood-color="#00ecff" flood-opacity="0.5" result="c3"></feFlood><feComposite operator="in" in="c1" in2="SourceAlpha" result="text-c1"></feComposite><feComposite operator="in" in="c2" in2="SourceAlpha" result="text-c2"></feComposite><feComposite operator="in" in="c3" in2="SourceAlpha" result="text-c3"></feComposite><feOffset in="text-c1" dx="-10" dy="0" result="text1"></feOffset><feOffset in="text-c2" dx="10" dy="0" result="text2"></feOffset><feOffset in="text-c3" dx="0" dy="0" result="text3"></feOffset><feMerge><feMergeNode in="text1"></feMergeNode><feMergeNode in="text2"></feMergeNode><feMergeNode in="text3"></feMergeNode></feMerge></filter></defs><g filter="url(#editing-offset)"><g transform="translate(171.00156092643738, 109)"><path d="M10.20 0L-1.30 0L16.80-66L37.70-66L42.30-28.30L60.90-66L78.40-66L80.20-16.60L80.20-16.60Q80.60-6.80 85.40-3.80L85.40-3.80L85.40-3.80Q84.30-1.80 81.10 0.10L81.10 0.10L81.10 0.10Q77.90 2 73.65 2L73.65 2L73.65 2Q69.40 2 66.90 0.80L66.90 0.80L66.90 0.80Q64.40-0.40 63-2.40L63-2.40L63-2.40Q60.50-6 60.50-12.90L60.50-12.90L60.50-43.80L40.80 0L28.40 0L21.40-44.90L10.20 0ZM127-7.50L127-7.50L127-7.50Q127-14.50 129.80-28.50L129.80-28.50L115-28.50L109.50 0L88.60 0L101.30-66L122.40-66L116.60-36.50L131.40-36.50L136.90-66L158-66L158-66Q156.60-58.60 154.80-50.30L154.80-50.30L151.40-34L151.40-34Q147.60-15 147.60-6.70L147.60-6.70L147.60-6.70Q147.60-3.30 148.70-1.40L148.70-1.40L148.70-1.40Q143.70 2 137.85 2L137.85 2L137.85 2Q132 2 129.50-0.80L129.50-0.80L129.50-0.80Q127-3.60 127-7.50Z"></path></g></g><style>text {
  font-size: 64px;
  font-family: Arial Black;
  dominant-baseline: central;
  text-anchor: middle;
}</style></svg>