<svg width="458.7699951171875px" height="121.40498046875px" xmlns="http://www.w3.org/2000/svg" viewBox="20.61500244140626 14.297509765625001 458.7699951171875 121.40498046875" style="background: rgb(35, 35, 35);" preserveAspectRatio="xMidYMid"><defs><filter id="editing-offset"><feFlood flood-color="rgba(100%,100%,100%,0.24)" flood-opacity="0.5" result="c1"></feFlood><feFlood flood-color="rgba(100%,100%,100%,0.227)" flood-opacity="0.5" result="c2"></feFlood><feFlood flood-color="#ffffff" flood-opacity="0.5" result="c3"></feFlood><feComposite operator="in" in="c1" in2="SourceAlpha" result="text-c1"></feComposite><feComposite operator="in" in="c2" in2="SourceAlpha" result="text-c2"></feComposite><feComposite operator="in" in="c3" in2="SourceAlpha" result="text-c3"></feComposite><feOffset in="text-c1" dx="-10" dy="0" result="text1"></feOffset><feOffset in="text-c2" dx="10" dy="0" result="text2"></feOffset><feOffset in="text-c3" dx="0" dy="0" result="text3"></feOffset><feMerge><feMergeNode in="text1"></feMergeNode><feMergeNode in="text2"></feMergeNode><feMergeNode in="text3"></feMergeNode></feMerge></filter></defs><g filter="url(#editing-offset)"><g transform="translate(90.44312870502472, 100.25)"><path d="M6.53 0L-0.83 0L10.75-42.24L24.13-42.24L27.07-18.11L38.98-42.24L50.18-42.24L51.33-10.62L51.33-10.62Q51.58-4.35 54.66-2.43L54.66-2.43L54.66-2.43Q53.95-1.15 51.90 0.06L51.90 0.06L51.90 0.06Q49.86 1.28 47.14 1.28L47.14 1.28L47.14 1.28Q44.42 1.28 42.82 0.51L42.82 0.51L42.82 0.51Q41.22-0.26 40.32-1.54L40.32-1.54L40.32-1.54Q38.72-3.84 38.72-8.26L38.72-8.26L38.72-28.03L26.11 0L18.18 0L13.70-28.74L6.53 0ZM81.28-4.80L81.28-4.80L81.28-4.80Q81.28-9.28 83.07-18.24L83.07-18.24L73.60-18.24L70.08 0L56.70 0L64.83-42.24L78.34-42.24L74.62-23.36L84.10-23.36L87.62-42.24L101.12-42.24L101.12-42.24Q100.22-37.50 99.07-32.19L99.07-32.19L96.90-21.76L96.90-21.76Q94.46-9.60 94.46-4.29L94.46-4.29L94.46-4.29Q94.46-2.11 95.17-0.90L95.17-0.90L95.17-0.90Q91.97 1.28 88.22 1.28L88.22 1.28L88.22 1.28Q84.48 1.28 82.88-0.51L82.88-0.51L82.88-0.51Q81.28-2.30 81.28-4.80ZM148.74 1.28L148.74 1.28L148.74 1.28Q140.99 1.28 140.99-4.74L140.99-4.74L140.99-4.74Q140.99-7.36 142.11-12.45L142.11-12.45L142.11-12.45Q143.23-17.54 143.62-19.58L143.62-19.58L143.62-19.58Q144.51-24.26 144.51-25.73L144.51-25.73L144.51-25.73Q144.51-28.99 142.08-28.99L142.08-28.99L142.08-28.99Q140.48-28.99 138.94-26.78L138.94-26.78L138.94-26.78Q137.41-24.58 136.70-20.16L136.70-20.16L132.74 0L120.26 1.28L123.71-16.13L123.71-16.13Q124.29-19.01 124.80-22.27L124.80-22.27L124.80-22.27Q125.31-25.54 125.31-26.05L125.31-26.05L125.31-26.05Q125.31-28.99 123.14-28.99L123.14-28.99L123.14-28.99Q121.66-28.99 120.06-26.82L120.06-26.82L120.06-26.82Q118.46-24.64 117.57-20.16L117.57-20.16L113.66 0L101.06 1.28L107.78-32.64L118.21-33.92L117.12-27.46L117.12-27.46Q118.78-30.91 121.86-32.42L121.86-32.42L121.86-32.42Q124.93-33.92 129.73-33.92L129.73-33.92L129.73-33.92Q132.48-33.92 134.27-32.58L134.27-32.58L134.27-32.58Q136.06-31.23 136.64-29.06L136.64-29.06L136.64-29.06Q137.73-31.30 140.51-32.61L140.51-32.61L140.51-32.61Q143.30-33.92 146.72-33.92L146.72-33.92L146.72-33.92Q150.14-33.92 151.84-33.18L151.84-33.18L151.84-33.18Q153.54-32.45 154.56-31.23L154.56-31.23L154.56-31.23Q156.29-28.99 156.29-24.90L156.29-24.90L156.29-24.90Q156.29-20.86 154.56-12.48L154.56-12.48L154.56-12.48Q153.66-8.38 153.66-6.88L153.66-6.88L153.66-6.88Q153.66-5.38 154.53-4.48L154.53-4.48L154.53-4.48Q155.39-3.58 156.67-3.46L156.67-3.46L156.67-3.46Q156.03-1.28 153.82 0L153.82 0L153.82 0Q151.62 1.28 148.74 1.28ZM187.52-10.82L187.52-10.82L187.52-10.82Q189.12-9.73 189.12-7.33L189.12-7.33L189.12-7.33Q189.12-4.93 187.90-3.39L187.90-3.39L187.90-3.39Q186.69-1.86 184.70-0.83L184.70-0.83L184.70-0.83Q180.61 1.28 176.19 1.28L176.19 1.28L176.19 1.28Q171.78 1.28 169.18 0.32L169.18 0.32L169.18 0.32Q166.59-0.64 164.86-2.43L164.86-2.43L164.86-2.43Q161.47-5.82 161.47-12.03L161.47-12.03L161.47-12.03Q161.47-21.70 166.72-27.58L166.72-27.58L166.72-27.58Q172.35-33.92 182.14-33.92L182.14-33.92L182.14-33.92Q188.22-33.92 191.23-31.36L191.23-31.36L191.23-31.36Q193.47-29.44 193.47-26.30L193.47-26.30L193.47-26.30Q193.47-15.04 174.02-15.04L174.02-15.04L174.02-15.04Q173.76-13.38 173.76-11.97L173.76-11.97L173.76-11.97Q173.76-9.02 175.07-7.90L175.07-7.90L175.07-7.90Q176.38-6.78 178.82-6.78L178.82-6.78L178.82-6.78Q181.25-6.78 183.84-7.90L183.84-7.90L183.84-7.90Q186.43-9.02 187.52-10.82ZM174.46-17.79L174.46-17.79L174.46-17.79Q179.01-17.79 181.63-20.61L181.63-20.61L181.63-20.61Q184.26-23.30 184.26-27.58L184.26-27.58L184.26-27.58Q184.26-29.06 183.71-29.86L183.71-29.86L183.71-29.86Q183.17-30.66 182.08-30.66L182.08-30.66L182.08-30.66Q180.99-30.66 180.06-30.24L180.06-30.24L180.06-30.24Q179.14-29.82 178.18-28.42L178.18-28.42L178.18-28.42Q175.81-25.22 174.46-17.79ZM176.45-39.87L191.55-49.22L191.55-49.22Q193.86-48.32 193.86-44.99L193.86-44.99L193.86-44.99Q193.86-42.18 191.17-40.38L191.17-40.38L191.17-40.38Q188.93-38.85 185.66-38.27L185.66-38.27L177.79-36.80L176.45-39.87ZM204.16 0.19L204.16 0.19L204.16 0.19Q202.11 1.28 199.30 1.28L199.30 1.28L199.30 1.28Q196.48 1.28 194.94-0.16L194.94-0.16L194.94-0.16Q193.41-1.60 193.41-4.38L193.41-4.38L193.41-4.38Q193.41-7.17 195.36-9.89L195.36-9.89L195.36-9.89Q197.31-12.61 200.22-14.14L200.22-14.14L200.22-14.14Q203.14-15.68 205.18-16.58L205.18-16.58L201.15-25.86L201.15-25.86Q200.06-28.22 198.02-28.22L198.02-28.22L197.50-28.16L197.31-28.16L197.31-28.16Q197.70-30.40 200.32-32.13L200.32-32.13L200.32-32.13Q202.94-33.92 205.95-33.92L205.95-33.92L205.95-33.92Q210.82-33.92 213.06-29.06L213.06-29.06L213.57-28.03L216.32-21.25L216.32-21.25Q218.05-22.02 218.78-23.46L218.78-23.46L218.78-23.46Q219.52-24.90 219.52-27.74L219.52-27.74L219.52-27.74Q219.52-30.59 217.98-32.38L217.98-32.38L217.98-32.38Q220.42-33.92 223.62-33.92L223.62-33.92L223.62-33.92Q229.38-33.92 229.38-28.35L229.38-28.35L229.38-28.35Q229.38-22.27 221.76-18.75L221.76-18.75L217.92-16.96L221.38-8.06L221.38-8.06Q222.40-5.38 224.26-4.22L224.26-4.22L224.26-4.22Q225.02-3.71 225.92-3.65L225.92-3.65L225.92-3.65Q224-0.51 219.84 0.90L219.84 0.90L219.84 0.90Q218.56 1.28 216.83 1.28L216.83 1.28L216.83 1.28Q215.10 1.28 213.12 0.10L213.12 0.10L213.12 0.10Q211.14-1.09 210.43-2.94L210.43-2.94L206.91-12.10L206.91-12.10Q203.33-10.50 203.33-4.67L203.33-4.67L203.33-4.67Q203.33-1.98 204.16 0.19ZM246.46-3.52L246.46-3.52L246.46-3.52Q244.48 1.28 238.14 1.28L238.14 1.28L238.14 1.28Q234.88 1.28 232.83-0.96L232.83-0.96L232.83-0.96Q231.10-2.94 231.10-4.93L231.10-4.93L231.10-4.93Q231.10-10.11 233.47-20.22L233.47-20.22L235.84-32.64L248.83-33.92L244.93-13.70L244.93-13.70Q243.84-8.96 243.84-7.30L243.84-7.30L243.84-7.30Q243.84-3.65 246.46-3.52ZM236.99-41.54L236.99-41.54L236.99-41.54Q236.99-44.03 239.07-45.38L239.07-45.38L239.07-45.38Q241.15-46.72 244.16-46.72L244.16-46.72L244.16-46.72Q247.17-46.72 248.99-45.38L248.99-45.38L248.99-45.38Q250.82-44.03 250.82-41.54L250.82-41.54L250.82-41.54Q250.82-39.04 248.80-37.76L248.80-37.76L248.80-37.76Q246.78-36.48 243.78-36.48L243.78-36.48L243.78-36.48Q240.77-36.48 238.88-37.76L238.88-37.76L238.88-37.76Q236.99-39.04 236.99-41.54ZM283.33-26.62L283.33-26.62L283.33-26.62Q283.33-23.94 281.09-22.27L281.09-22.27L281.09-22.27Q278.85-20.61 275.20-20.61L275.20-20.61L275.20-20.61Q273.66-20.61 272.77-21.06L272.77-21.06L272.77-21.06Q273.47-22.72 273.70-24.80L273.70-24.80L273.70-24.80Q273.92-26.88 273.92-27.46L273.92-27.46L273.92-27.46Q273.92-30.14 272.06-30.14L272.06-30.14L272.06-30.14Q270.78-30.14 269.34-28.54L269.34-28.54L269.34-28.54Q267.90-26.94 266.69-24.45L266.69-24.45L266.69-24.45Q264.00-18.69 264.00-12.86L264.00-12.86L264.00-12.86Q264.00-9.66 265.22-8.22L265.22-8.22L265.22-8.22Q266.43-6.78 269.12-6.78L269.12-6.78L269.12-6.78Q272.83-6.78 275.78-9.86L275.78-9.86L275.78-9.86Q276.61-10.82 277.06-11.90L277.06-11.90L277.06-11.90Q279.49-10.62 279.49-7.10L279.49-7.10L279.49-7.10Q279.49-3.52 275.52-1.15L275.52-1.15L275.52-1.15Q271.42 1.28 264.90 1.28L264.90 1.28L264.90 1.28Q251.90 1.28 251.90-12.48L251.90-12.48L251.90-12.48Q251.90-22.53 257.60-28.29L257.60-28.29L257.60-28.29Q263.10-33.92 273.22-33.92L273.22-33.92L273.22-33.92Q283.33-33.92 283.33-26.62ZM299.01 1.28L299.01 1.28L299.01 1.28Q284.93 1.28 284.93-11.97L284.93-11.97L284.93-11.97Q284.93-21.38 290.11-27.46L290.11-27.46L290.11-27.46Q295.62-33.92 305.15-33.92L305.15-33.92L305.15-33.92Q312.06-33.92 315.58-30.72L315.58-30.72L315.58-30.72Q319.10-27.52 319.10-20.80L319.10-20.80L319.10-20.80Q319.10-10.56 313.60-4.61L313.60-4.61L313.60-4.61Q308.22 1.28 299.01 1.28ZM300.67-26.56L300.67-26.56L300.67-26.56Q299.90-24.83 299.30-22.24L299.30-22.24L299.30-22.24Q298.69-19.65 297.92-15.55L297.92-15.55L297.92-15.55Q297.15-11.46 297.15-6.40L297.15-6.40L297.15-6.40Q297.15-4.74 297.70-3.65L297.70-3.65L297.70-3.65Q298.24-2.56 299.71-2.56L299.71-2.56L299.71-2.56Q301.18-2.56 302.11-3.26L302.11-3.26L302.11-3.26Q303.04-3.97 303.74-5.63L303.74-5.63L303.74-5.63Q305.02-8.58 306.05-14.05L306.05-14.05L306.05-14.05Q307.07-19.52 307.17-21.89L307.17-21.89L307.17-21.89Q307.26-24.26 307.26-26.02L307.26-26.02L307.26-26.02Q307.26-27.78 306.75-28.93L306.75-28.93L306.75-28.93Q306.24-30.08 304.80-30.08L304.80-30.08L304.80-30.08Q303.36-30.08 302.40-29.18L302.40-29.18L302.40-29.18Q301.44-28.29 300.67-26.56Z"></path></g></g><style>text {
  font-size: 64px;
  font-family: Arial Black;
  dominant-baseline: central;
  text-anchor: middle;
}</style></svg>